<?xml version="1.0" standalone="no"?>
<!DOCTYPE svg PUBLIC "-//W3C//DTD SVG 20010904//EN"
 "http://www.w3.org/TR/2001/REC-SVG-20010904/DTD/svg10.dtd">
<svg version="1.0" xmlns="http://www.w3.org/2000/svg"
 width="501.000000pt" height="501.000000pt" viewBox="0 0 501.000000 501.000000"
 preserveAspectRatio="xMidYMid meet">

<g transform="translate(0.000000,501.000000) scale(0.100000,-0.100000)"
fill="#000000" stroke="none">
<path class="navigation__logo__j" fill="#1771b9" d="M2456 4628 c-63 -98 -306 -534 -306 -549 0 -10 392 -697 870 -1525
479 -829 870 -1513 870 -1520 0 -7 -10 -20 -22 -28 -20 -14 -136 -16 -1049
-16 -965 0 -1027 -1 -1041 -17 -8 -10 -81 -133 -161 -274 -153 -266 -169 -307
-128 -329 31 -16 2262 -14 2283 3 28 22 608 1040 608 1067 0 15 -363 653 -918
1615 l-918 1590 -37 3 c-28 3 -39 -2 -51 -20z"/>
<path class="navigation__logo__a" fill="#4b4b4b" d="M1753 3408 c-12 -15 -1092 -1887 -1117 -1936 -21 -40 -33 -12 159
-346 146 -253 160 -271 204 -259 12 3 84 118 202 324 101 175 196 339 212 364
l27 45 676 0 c446 0 682 4 695 10 41 22 25 63 -123 319 -78 135 -150 258 -160
274 l-19 27 -320 0 c-307 0 -320 1 -339 20 -25 25 -35 2 147 318 75 129 140
246 146 261 9 24 -4 50 -143 291 -84 146 -159 273 -168 283 -18 20 -65 23 -79
5z"/>
</g>
</svg>
