<svg xmlns="http://www.w3.org/2000/svg" viewBox="0 0 500 500">
    <title>Artboard 10</title>
        <g id="Overlays">
            <path class="navigation__logo__j" fill="#1771b9" d="M468.18,377.92,399.39,497.08a5.84,5.84,0,0,1-5.06,2.92H135.11a5.85,5.85,0,0,1-5.06-8.76l35-60.66a5.81,5.81,0,0,1,5.06-2.93H406.6a5.84,5.84,0,0,0,5.06-8.76L209.91,69.43a5.81,5.81,0,0,1,0-5.84l35-60.67a5.85,5.85,0,0,1,10.12,0L468.18,372.08A5.81,5.81,0,0,1,468.18,377.92Z"/>
            <path class="navigation__logo__a" fill="#4c4b4c" d="M282.09,355.27H128.42a5.87,5.87,0,0,0-5.06,2.92L77,438.57a5.85,5.85,0,0,1-10.12,0l-35-60.67a5.81,5.81,0,0,1,0-5.84l130-225.1a5.85,5.85,0,0,1,10.12,0l35,60.68a5.81,5.81,0,0,1,0,5.84l-35,60.67a5.84,5.84,0,0,0,5.05,8.76h70.12a5.83,5.83,0,0,1,5.05,2.92l35,60.68A5.84,5.84,0,0,1,282.09,355.27Z"/>
        </g>
</svg>